# xmcd CD database file
#
# Track frame offsets:
#	150
#	15802
#	36404
#	60848
#	81280
#	102923
#	122187
#	148791
#	164912
#	181856
#	202544
#
# Disc length: 2908 seconds
#
# Revision: 0
# Processed by: cddbd v1.5.2PL0 Copyright (c) Steve Scherf et al.
# Submitted via: CDex 1.51
#
DISCID=890b5a0b
DTITLE=Boogie Chillin' Blues Band - Steeple Sessions
DYEAR=2007
DGENRE=Blues
TTITLE0=Gard My Heart (Mark Wenner)
TTITLE1=Baby Please Don't Lie To Me (Kim Wilson)
TTITLE2=Blow Wind Blow (McKinley Morganfield)
TTITLE3=Last Night (Red Hot Cancers)
TTITLE4=The Thrill Is Gone (Rick Darnell)
TTITLE5=Calling San Francisco (Tommy Castro)
TTITLE6=Everyday I Have The Blues (B.B. King)
TTITLE7=Too Much Stuff (Delbert McClinton)
TTITLE8=Laying In the Alley (Big Joe Maher)
TTITLE9=T-Bone Boogie (Walker T-Bone)
TTITLE10=Hoodoo Party (Coco Robicheaux)
EXTD=YEAR: 2007
EXTT0=
EXTT1=
EXTT2=
EXTT3=
EXTT4=
EXTT5=
EXTT6=
EXTT7=
EXTT8=
EXTT9=
EXTT10=
PLAYORDER=
